#tb 0: 1001/30000
0,          0,          0,        1,    66444, 5cb240f10761f59687612ed589759800
0,          1,          1,        1,    66444, 9d8d5b57336ddfa5c9c5100a0302197d
0,          2,          2,        1,    66444, 9db74997d23b16f527c63e88795331dc
0,          3,          3,        1,    66444, 52758cd901533e790334d464bee516da
0,          4,          4,        1,    66444, 40e671b9b85d07b13acba85eb64bbbaa
0,          5,          5,        1,    66444, 8524b2cd2c9bb3e41c6167f8269e75d2
0,          6,          6,        1,    66444, ff194ad6fa180fde86cc05a99c0580ec
0,          7,          7,        1,    66444, 22ab303cb37745a73c227cd7d1c70003
0,          8,          8,        1,    66444, 01986c58e82e0b5194418f5b75a8599c
0,          9,          9,        1,    66444, eedfc9c14cbf3fa10402dbed52103848
